<svg width="154" height="38" viewBox="0 0 154 38" fill="none" xmlns="http://www.w3.org/2000/svg">
<path d="M5.58666 2.36363H11.7131L16.6115 22.3892H16.9354L28.446 2.36363H34.5725L29.9844 30H25.1804L28.3381 11.0135H28.0952L17.2997 29.919H13.7237L9.24362 10.973H8.98723L5.80257 30H0.998596L5.58666 2.36363Z" fill="#393E41"/>
<path d="M36.9879 37.7727C36.3222 37.7727 35.715 37.7187 35.1662 37.6108C34.6264 37.5118 34.1991 37.3949 33.8843 37.2599L35.6655 33.4545C36.3402 33.6615 36.9475 33.7514 37.4872 33.7244C38.036 33.7064 38.5398 33.522 38.9986 33.1712C39.4664 32.8293 39.9252 32.267 40.375 31.4844L40.9958 30.3643L37.0284 9.27272H42.0213L44.1804 24.9531H44.3963L51.8047 9.27272H57.1889L45.0575 32.483C44.4728 33.6075 43.7936 34.5611 43.0199 35.3437C42.2462 36.1354 41.3601 36.7382 40.3615 37.152C39.3719 37.5658 38.2474 37.7727 36.9879 37.7727Z" fill="#393E41"/>
<path d="M57.3306 30L61.9187 2.36363H72.2823C74.4054 2.36363 76.1237 2.75947 77.4372 3.55113C78.7506 4.3338 79.6637 5.41785 80.1765 6.80326C80.6893 8.17968 80.7972 9.74952 80.5004 11.5128C80.2125 13.285 79.5783 14.8594 78.5977 16.2358C77.6261 17.6122 76.3441 18.6963 74.7518 19.4879C73.1595 20.2706 71.2972 20.6619 69.1651 20.6619H62.2965L62.9847 16.5462H69.1786C70.4201 16.5462 71.4727 16.3303 72.3363 15.8984C73.2089 15.4666 73.8972 14.8729 74.4009 14.1172C74.9047 13.3615 75.2376 12.4934 75.3995 11.5128C75.5525 10.5322 75.503 9.66856 75.2511 8.92187C74.9992 8.17519 74.5089 7.59493 73.7802 7.1811C73.0605 6.75828 72.0754 6.54687 70.8249 6.54687H66.2369L62.337 30H57.3306Z" fill="#393E41"/>
<path d="M81.5327 30L84.9872 9.27272H89.8722L86.4176 30H81.5327ZM88.1449 6.30397C87.3622 6.30397 86.7145 6.04308 86.2017 5.5213C85.6889 4.99952 85.464 4.37429 85.527 3.64559C85.59 2.9169 85.9183 2.29166 86.5121 1.76988C87.1148 1.2481 87.803 0.987213 88.5767 0.987213C89.3594 0.987213 90.0026 1.2481 90.5064 1.76988C91.0192 2.29166 91.2441 2.9169 91.1811 3.64559C91.1271 4.37429 90.7988 4.99952 90.196 5.5213C89.6023 6.04308 88.9186 6.30397 88.1449 6.30397Z" fill="#393E41"/>
<path d="M91.1845 30L91.7108 26.8963L104.598 13.4964L104.652 13.321H94.3152L95.0034 9.27272H111.305L110.765 12.6058L98.4174 25.7763L98.3635 25.9517H108.889L108.228 30H91.1845Z" fill="#393E41"/>
<path d="M112.56 30L113.086 26.8963L125.973 13.4964L126.027 13.321H115.69L116.378 9.27272H132.68L132.14 12.6058L119.792 25.7763L119.738 25.9517H130.264L129.603 30H112.56Z" fill="#393E41"/>
<path d="M140.101 30.4183C138.788 30.4183 137.645 30.1844 136.674 29.7166C135.702 29.2398 134.987 28.5381 134.528 27.6115C134.078 26.6849 133.966 25.5424 134.191 24.1839C134.389 23.0144 134.767 22.0473 135.324 21.2827C135.891 20.518 136.584 19.9062 137.403 19.4474C138.23 18.9796 139.13 18.6288 140.101 18.3949C141.082 18.161 142.081 17.9901 143.097 17.8821C144.339 17.7562 145.342 17.6392 146.106 17.5312C146.88 17.4233 147.46 17.2614 147.847 17.0455C148.234 16.8205 148.468 16.4787 148.549 16.0199V15.9389C148.711 14.9223 148.549 14.1352 148.063 13.5774C147.577 13.0196 146.768 12.7408 145.634 12.7408C144.447 12.7408 143.448 13.0017 142.638 13.5234C141.829 14.0452 141.239 14.6615 140.871 15.3722L136.444 14.7244C137.002 13.465 137.767 12.4124 138.738 11.5668C139.71 10.7121 140.83 10.0734 142.099 9.65057C143.376 9.21875 144.739 9.00284 146.187 9.00284C147.177 9.00284 148.144 9.11979 149.089 9.35369C150.042 9.58759 150.883 9.97443 151.612 10.5142C152.35 11.045 152.89 11.7692 153.231 12.6868C153.582 13.6044 153.641 14.7514 153.407 16.1278L151.099 30H146.403L146.889 27.1527H146.727C146.34 27.7285 145.836 28.2682 145.216 28.772C144.595 29.2668 143.857 29.6671 143.003 29.973C142.148 30.2699 141.181 30.4183 140.101 30.4183ZM141.95 26.8288C142.931 26.8288 143.812 26.6354 144.595 26.2486C145.378 25.8527 146.021 25.331 146.525 24.6832C147.028 24.0355 147.343 23.3293 147.469 22.5646L147.874 20.1222C147.694 20.2481 147.415 20.3651 147.037 20.473C146.66 20.581 146.237 20.6754 145.769 20.7564C145.31 20.8374 144.856 20.9093 144.406 20.9723C143.956 21.0353 143.569 21.0892 143.246 21.1342C142.499 21.2332 141.815 21.3951 141.194 21.62C140.583 21.8449 140.074 22.1598 139.67 22.5646C139.274 22.9605 139.026 23.4732 138.927 24.103C138.783 24.9936 138.995 25.6728 139.562 26.1406C140.128 26.5994 140.925 26.8288 141.95 26.8288Z" fill="#393E41"/>
</svg>
