<svg width="224" height="187" viewBox="0 0 224 187" fill="none" xmlns="http://www.w3.org/2000/svg">
<path d="M223.28 19.01H57.48V186.59H223.28V19.01Z" fill="#EBEBEB"/>
<path d="M133.71 8.89997C139.24 2.40997 148.71 0.849966 157.87 2.69997C167.03 4.54997 178 9.16997 179 24.49C179.82 36.93 176 49.06 176 62.94C176 76.82 191.71 110.63 166.57 127.13C143.98 141.95 98.2099 128.34 96.7999 97.83C95.6899 73.65 124.37 51.29 127.39 41.72C130.41 32.15 127.65 16 133.71 8.89997Z" fill="#263238"/>
<path d="M129.58 22.5499C129.41 29.4699 128.41 36.4699 125.58 42.9999C124.846 44.6538 123.887 46.1984 122.73 47.5899C121.62 48.9899 120.44 50.3099 119.26 51.5899C116.88 54.1799 114.53 56.7499 112.26 59.4199C107.751 64.651 104.026 70.5087 101.2 76.8099C98.4904 83.1407 97.0009 89.9263 96.81 96.8099C96.5284 93.3358 96.6323 89.8412 97.12 86.3899C97.6606 82.9209 98.5553 79.5165 99.79 76.2299C102.395 69.6449 106.086 63.5435 110.71 58.1799C112.98 55.4699 115.39 52.8799 117.79 50.3199C120.19 47.7599 122.62 45.3199 124.11 42.3199C125.638 39.2527 126.803 36.0174 127.58 32.6799C128.457 29.3483 129.125 25.965 129.58 22.5499V22.5499Z" fill="#263238"/>
<path d="M178.37 34.9399C178.2 41.9999 177.75 49.0499 177.94 56.0599C178.022 59.5512 178.316 63.0343 178.82 66.4899C179.34 69.8899 180.36 73.2899 181.21 76.7299C182.06 80.1699 182.82 83.6599 183.38 87.1799C183.921 90.7163 184.149 94.2935 184.06 97.8699C183.897 101.464 183.224 105.016 182.06 108.42C180.718 111.766 178.714 114.806 176.17 117.36C178.399 114.619 180.095 111.485 181.17 108.12C182.102 104.773 182.567 101.314 182.55 97.8399C182.266 90.847 181.173 83.9106 179.29 77.1699C178.49 73.7399 177.47 70.3399 176.98 66.7299C176.521 63.1929 176.34 59.6253 176.44 56.0599C176.651 48.9871 177.296 41.9339 178.37 34.9399V34.9399Z" fill="#263238"/>
<path d="M142 94.3099C119 119.63 100.23 131.79 81.7299 131.79C64.1399 131.79 26.5599 89.0799 23.7999 83.4499C21.4199 78.5899 52.2699 51.9999 57.0099 55.3099C65.0099 60.8499 90.6699 92.9199 93.3899 93.0699C96.1099 93.2199 106.13 86.5999 130.26 75.2999C144.92 68.4499 158 76.7599 142 94.3099Z" fill="#EB9481"/>
<path d="M27.38 87.66C24 84 9.80996 65.73 6.99996 59.77C4.18996 53.81 -2.62004 36.07 1.72996 33.46C6.07996 30.85 8.47996 35.88 8.47996 35.88C8.47996 35.88 6.78996 27.94 11.41 25.71C16.03 23.48 19.51 31.43 19.51 31.43C19.51 31.43 18.37 23.15 23.13 21.25C27.89 19.35 30.07 27.95 30.07 27.95C30.07 27.95 28.67 20.42 33.25 20.51C38.76 20.62 39.7699 34.79 43.3599 41.14C44.1699 42.58 61.95 69.14 61.95 69.14L27.38 87.66Z" fill="#EB9481"/>
<path d="M29.8799 27.2199C30.6499 37.6299 32.7899 42.0599 38.8799 50.3299C38.9999 50.4899 38.7899 50.6999 38.6499 50.5499C31.9199 42.9899 28.4399 37.8299 29.3499 27.2299C29.4199 26.7099 29.8399 26.7199 29.8799 27.2199Z" fill="#263238"/>
<path d="M19.48 30.61C21.22 41.36 23.48 46.18 29.27 55.31C29.35 55.44 29.14 55.59 29.05 55.47C22.64 46.98 19.28 41.75 18.95 30.78C18.93 30.28 19.4 30.11 19.48 30.61Z" fill="#263238"/>
<path d="M8.80001 36.3399C11.24 46.6299 13.51 52.0199 20.25 60.1599C20.41 60.3599 20.14 60.6099 19.97 60.4299C12.29 52.7899 9.41001 46.0799 8.50001 36.4299C8.44001 35.7899 8.65001 35.6899 8.80001 36.3399Z" fill="#263238"/>
<path d="M69.88 71.6799C69.88 71.6799 69.65 58.5899 68.28 52.8599C66.91 47.1299 54 27.6699 49.59 30.2299C43.96 33.5299 49.22 46.2299 52.59 52.1299C52.59 52.1299 39.59 59.7699 41.36 69.7099C43.13 79.6499 69.88 71.6799 69.88 71.6799Z" fill="#EB9481"/>
<path d="M48.34 31.64C45.34 38.36 50.34 45.81 53.19 51.76C53.2358 51.8456 53.2605 51.9409 53.2621 52.038C53.2637 52.1351 53.242 52.2311 53.199 52.3182C53.156 52.4052 53.0928 52.4807 53.0147 52.5385C52.9366 52.5962 52.8458 52.6344 52.75 52.65C47.49 56.22 41.12 62.77 41.04 69.47C41.04 69.5097 41.0242 69.5479 40.996 69.576C40.9679 69.6041 40.9298 69.6199 40.89 69.6199C40.8502 69.6199 40.812 69.6041 40.7839 69.576C40.7558 69.5479 40.74 69.5097 40.74 69.47C39.85 62.27 45.58 55.31 51.58 51.78C48.58 45.71 43.91 38.03 48.28 31.58L48.34 31.64Z" fill="#263238"/>
<path d="M102.34 85.71L120.82 120.19C120.82 120.19 145.88 95.86 149.88 85.71C153.88 75.56 149.57 68.19 131.74 73.62C121.554 76.6388 111.703 80.6898 102.34 85.71V85.71Z" fill="#F1C08F"/>
<path d="M125.09 113C124.18 111.13 123.38 109.2 122.43 107.34C121.48 105.48 120.53 103.64 119.54 101.82C117.54 98.14 115.54 94.45 113.46 90.82C112.28 88.82 111.04 86.76 109.75 84.82C109.7 84.73 109.53 84.82 109.58 84.89C112.97 92.48 117.08 99.75 121.18 106.97C122.37 109.06 123.72 111.05 124.96 113.11C125 113.16 125.14 113.07 125.09 113Z" fill="#263238"/>
<path d="M149.88 85.7099C145.88 95.8599 120.82 120.19 120.82 120.19L108.37 96.9999L149.44 74.2899C151.8 76.7499 151.77 80.9199 149.88 85.7099Z" fill="#263238"/>
<path d="M106.55 143.76C106.55 143.76 96.39 168.08 99.98 186.58H212C208.36 136.29 183.29 93.0699 168.48 79.0799C156.54 67.7999 143.97 68.8099 135.22 74.5799C133.16 75.9499 110.43 107.36 107.97 112.33C98.21 131.94 106.55 143.76 106.55 143.76Z" fill="#F1C08F"/>
<path d="M136 73.1C136 73.1 129 93.23 133.06 94.28C143.16 96.88 156.71 80.39 157.52 78.71C157.72 78.28 158.62 67.01 159.29 58.24C159.72 52.6 160.05 47.99 160.05 47.99L135.13 56.54L135.93 71.99L136 73.1Z" fill="#EB9481"/>
<path d="M135.09 56.54L135.89 71.99C140.96 71.28 152.11 68.53 159.25 58.24C159.68 52.6 160.01 47.99 160.01 47.99L156.89 48.99L135.09 56.54Z" fill="#263238"/>
<path d="M116.53 34.91C116.23 42.76 117.01 49.11 118.92 53.33C120.556 56.9344 123.16 60.0147 126.442 62.2284C129.724 64.4421 133.555 65.7026 137.51 65.8699C140.51 65.9799 149.15 65.1899 155.4 60.4299C160.26 56.7299 163.19 50.06 164.85 38.33C168.65 11.51 156.38 2.48995 144.29 1.40995C132.2 0.329954 117.53 7.84995 116.53 34.91Z" fill="#EB9481"/>
<path d="M123.46 28.93C124.09 28.84 124.67 28.66 125.28 28.52C125.943 28.4603 126.57 28.1906 127.07 27.75C127.195 27.5787 127.263 27.3721 127.263 27.16C127.263 26.9479 127.195 26.7412 127.07 26.57C126.759 26.2806 126.376 26.0791 125.962 25.9859C125.547 25.8928 125.115 25.9115 124.71 26.04C123.848 26.1771 123.067 26.6297 122.52 27.31C122.391 27.4675 122.313 27.6606 122.297 27.8636C122.28 28.0666 122.326 28.2697 122.428 28.4458C122.531 28.622 122.684 28.7627 122.869 28.8492C123.053 28.9357 123.259 28.9639 123.46 28.93V28.93Z" fill="#263238"/>
<path d="M141.13 29.5999C140.516 29.4918 139.909 29.3516 139.31 29.1799C138.647 29.1246 138.02 28.8502 137.53 28.3999C137.405 28.2286 137.337 28.022 137.337 27.8099C137.337 27.5978 137.405 27.3912 137.53 27.2199C137.844 26.9313 138.229 26.7318 138.646 26.6421C139.062 26.5524 139.495 26.5758 139.9 26.7099C140.769 26.8489 141.554 27.3093 142.1 27.9999C142.225 28.1598 142.299 28.3541 142.311 28.5569C142.323 28.7597 142.273 28.9615 142.168 29.1352C142.063 29.3089 141.907 29.4465 141.722 29.5295C141.536 29.6125 141.33 29.6371 141.13 29.5999V29.5999Z" fill="#263238"/>
<path d="M136.71 36.3599C136.71 36.2899 136.85 36.4499 136.85 36.5299C136.7 38.3599 136.85 40.5299 138.48 41.1899C138.48 41.1899 138.48 41.2999 138.48 41.2899C136.44 40.9099 136.28 38.0699 136.71 36.3599Z" fill="#263238"/>
<path d="M138.45 34.51C141.45 34.43 141.37 40.38 138.61 40.46C135.85 40.54 136 34.58 138.45 34.51Z" fill="#263238"/>
<path d="M139.62 34.8399C140.13 35.1799 140.62 35.7799 141.26 35.8399C141.9 35.8999 142.54 35.2999 143.02 34.6999C143.07 34.6399 143.12 34.6999 143.12 34.7699C143.12 35.9099 142.68 37.0799 141.45 37.2399C140.22 37.3999 139.55 36.3599 139.27 35.2399C139.22 34.9999 139.41 34.6999 139.62 34.8399Z" fill="#263238"/>
<path d="M126.86 35.58C126.86 35.51 126.72 35.67 126.72 35.74C126.72 37.59 126.53 39.74 124.86 40.32C124.81 40.32 124.81 40.43 124.86 40.42C126.91 40.14 127.21 37.32 126.86 35.58Z" fill="#263238"/>
<path d="M125.22 33.6499C122.22 33.4199 122.01 39.3699 124.76 39.5799C127.51 39.7899 127.7 33.8499 125.22 33.6499Z" fill="#263238"/>
<path d="M124 33.9999C123.52 34.2999 123 34.8499 122.47 34.8699C121.94 34.8899 121.36 34.2199 120.97 33.5899C120.97 33.5199 120.88 33.5899 120.87 33.6499C120.8 34.7899 121.12 35.9799 122.21 36.2499C123.3 36.5199 123.97 35.5399 124.28 34.4199C124.3 34.1999 124.15 33.8799 124 33.9999Z" fill="#263238"/>
<path d="M136.53 50.6799C136.1 51.1299 135.68 51.7399 135.02 51.8199C134.334 51.825 133.654 51.6923 133.02 51.4299C133.008 51.4193 132.992 51.4139 132.976 51.4148C132.961 51.4157 132.946 51.423 132.935 51.4349C132.924 51.4468 132.919 51.4625 132.92 51.4785C132.921 51.4944 132.928 51.5093 132.94 51.5199C133.218 51.8728 133.585 52.1445 134.004 52.3064C134.423 52.4683 134.877 52.5144 135.32 52.4399C135.689 52.3244 136.017 52.1042 136.264 51.806C136.511 51.5078 136.666 51.1444 136.71 50.7599C136.716 50.7371 136.713 50.713 136.703 50.6919C136.693 50.6707 136.675 50.6539 136.654 50.6444C136.632 50.6348 136.608 50.6331 136.585 50.6396C136.563 50.6461 136.543 50.6604 136.53 50.6799V50.6799Z" fill="#263238"/>
<path d="M129 43.8499C129 43.8499 128.56 46.5999 128.54 47.8999C128.54 48.0199 128.85 48.0799 129.29 48.1199C129.29 48.1199 129.29 48.1199 129.34 48.1199C130.444 48.3382 131.586 48.2505 132.644 47.8662C133.701 47.482 134.634 46.8159 135.34 45.9399C135.43 45.8199 135.27 45.6799 135.15 45.7599C133.469 46.8545 131.482 47.3803 129.48 47.2599C129.4 46.8899 130.39 42.5799 130.18 42.5599C129.157 42.6235 128.147 42.8288 127.18 43.1699C127.93 37.4199 129.59 31.8399 130.24 26.1099C130.24 25.9099 129.97 25.8399 129.91 26.0199C127.75 31.7399 126.75 38.3399 125.82 44.2499C125.74 44.9999 128.44 44.0699 129 43.8499Z" fill="#263238"/>
<path d="M130.12 47.4399C130.76 48.4202 131.642 49.2191 132.68 49.7599C133.252 50.0327 133.894 50.1235 134.52 50.0199C135.89 49.7699 136.02 48.5399 135.86 47.4699C135.762 46.9004 135.601 46.3436 135.38 45.8099C133.846 46.9007 132.002 47.4719 130.12 47.4399V47.4399Z" fill="#263238"/>
<path d="M132.68 49.76C133.252 50.0327 133.894 50.1235 134.52 50.02C135.89 49.77 136.02 48.54 135.86 47.47C135.15 47.4382 134.449 47.6469 133.872 48.0625C133.295 48.4781 132.875 49.0761 132.68 49.76V49.76Z" fill="#FF98B9"/>
<path d="M164.36 35.92C161.41 36.01 153.04 28.65 151.52 14.51C151.52 14.51 153.77 27.11 154.89 28.88C156.01 30.65 150.21 24.73 148.82 13.35C148.82 13.35 142.92 18.49 137.66 20.49C132.4 22.49 129.11 22.75 128.66 22.39C128.21 22.03 135.94 18.81 137.86 16.15C137.86 16.15 124.13 24.15 117.57 25.23C116.81 25.35 118.09 13.54 127.7 5.93997C137.31 -1.66003 150.52 0.239965 155.26 4.03996C155.26 4.03996 160.44 4.30996 166.68 11.36C172.92 18.41 167.53 35.82 164.36 35.92Z" fill="#263238"/>
<path d="M160.47 40.24C160.47 40.24 165.96 31.51 169.89 33.43C173.82 35.35 169.99 47.8 165.58 49.69C165.031 49.9736 164.431 50.143 163.814 50.188C163.198 50.2329 162.579 50.1525 161.995 49.9516C161.411 49.7506 160.874 49.4333 160.416 49.0188C159.957 48.6043 159.588 48.1012 159.33 47.54L160.47 40.24Z" fill="#EB9481"/>
<path d="M168.7 37C168.78 37 168.79 37.09 168.7 37.12C165.61 38.55 164.1 41.56 163.08 44.65C163.97 43.43 165.21 42.73 166.83 43.77C166.91 43.82 166.83 43.96 166.75 43.94C166.193 43.8039 165.608 43.8401 165.073 44.0436C164.537 44.2472 164.076 44.6086 163.75 45.08C163.211 45.8884 162.755 46.7495 162.39 47.65C162.26 47.94 161.74 47.82 161.84 47.49C161.836 47.4635 161.836 47.4365 161.84 47.41C161.56 43.37 164.41 37.59 168.7 37Z" fill="#263238"/>
<path d="M177.15 84.5699C188.23 97.3599 219.29 143.66 212.09 156.17C205.18 168.17 189.51 171.55 180.49 155.43C174 143.9 163.09 109.5 160.38 92.9999C158.18 79.6399 166.91 72.7399 177.15 84.5699Z" fill="#EB9481"/>
<path d="M166.8 125.56L203.52 112.07C203.52 112.07 182.91 83.86 173.42 78.49C163.93 73.12 156.03 76.36 158.93 94.77C160.491 105.276 163.128 115.594 166.8 125.56V125.56Z" fill="#F1C08F"/>
<path d="M197 106.83C195 107.48 193 108 191 108.68C189 109.36 187.08 110.05 185.14 110.78C181.21 112.24 177.29 113.7 173.4 115.27C171.22 116.15 169.04 117.1 166.91 118.1C166.81 118.1 166.85 118.31 166.91 118.28C174.91 115.98 182.67 112.92 190.39 109.87C192.63 108.98 194.78 107.87 196.99 106.98C197.14 106.94 197.07 106.8 197 106.83Z" fill="#263238"/>
<path d="M168.87 124.7C168.143 124.861 167.43 125.081 166.74 125.36C165.74 123.19 163.37 113.65 162.82 111.2C161.72 106.32 160.82 101.39 159.67 96.5099C159.67 96.3699 159.4 96.4099 159.42 96.5099C159.76 99.2199 160.18 101.92 160.65 104.6C160.15 103.32 159.65 102.03 159.26 100.72C159.264 100.711 159.266 100.701 159.265 100.691C159.264 100.681 159.261 100.671 159.255 100.663C159.25 100.655 159.242 100.648 159.233 100.643C159.225 100.638 159.215 100.636 159.205 100.636C159.195 100.636 159.185 100.638 159.176 100.643C159.168 100.648 159.16 100.655 159.155 100.663C159.149 100.671 159.146 100.681 159.145 100.691C159.144 100.701 159.146 100.711 159.15 100.72C159.604 102.347 160.162 103.944 160.82 105.5C161.21 110.5 165.76 126.39 165.89 126.33C166.919 125.863 167.92 125.339 168.89 124.76C169 124.79 169 124.69 168.87 124.7Z" fill="#263238"/>
<path d="M150.71 30.5699L140.26 75.1799C139.81 76.4899 140.48 77.5399 141.76 77.5199L161.71 81.5799C162.409 81.5159 163.075 81.2544 163.631 80.8259C164.187 80.3974 164.61 79.8196 164.85 79.1599L175.3 34.5499C175.75 33.2399 175.08 32.1899 173.8 32.2199L153.85 28.1499C153.151 28.2139 152.484 28.4754 151.928 28.9039C151.372 29.3324 150.95 29.9102 150.71 30.5699V30.5699Z" fill="#A6A6A6"/>
<path d="M152.42 30.8199L142 75.4299C141.55 76.7399 142.22 77.7899 143.5 77.7699L163.45 81.8299C164.148 81.7668 164.813 81.5067 165.369 81.0801C165.925 80.6534 166.348 80.0777 166.59 79.4199L177 34.8099C177.45 33.4899 176.78 32.4499 175.5 32.4699L155.56 28.3999C154.862 28.4674 154.197 28.7302 153.642 29.1582C153.086 29.5862 152.663 30.1622 152.42 30.8199V30.8199Z" fill="#DBDBDB"/>
<path d="M158.74 32.7399C158.75 33.14 158.639 33.5338 158.423 33.8705C158.207 34.2071 157.894 34.4711 157.526 34.6283C157.158 34.7855 156.752 34.8287 156.359 34.7523C155.966 34.6758 155.605 34.4833 155.323 34.1996C155.04 33.9159 154.85 33.5541 154.775 33.1609C154.701 32.7677 154.746 32.3612 154.905 31.994C155.065 31.6268 155.33 31.3157 155.668 31.1011C156.006 30.8864 156.4 30.7781 156.8 30.7899C157.315 30.7926 157.809 30.9992 158.172 31.3646C158.536 31.73 158.74 32.2245 158.74 32.7399V32.7399Z" fill="#263238"/>
<path d="M185.82 159.47C192.31 171.47 209.49 164.63 212.09 156.17C218.19 136.32 214.41 103.32 210.77 84.8899C209.6 78.9599 169.32 84.8899 169.56 91.2999C169.84 99.0499 173.1 135.87 185.82 159.47Z" fill="#EB9481"/>
<path d="M210.32 93.7C212.349 84.9553 212.472 75.8763 210.68 67.08C208.56 57.49 201.63 37.15 173.77 28.08C167.16 25.92 156.21 27.53 165.77 34.97C172.53 40.26 178.41 41.57 181.77 45.37C181.77 45.37 168.09 49.07 166.19 55.77C164.526 61.6345 163.28 67.6095 162.46 73.65C163.531 74.0515 164.627 74.3855 165.74 74.65C165.152 80.4835 166.51 86.3476 169.6 91.33L210.32 93.7Z" fill="#EB9481"/>
<path d="M207.19 58.25C203.05 55.25 194.19 48.87 185.1 46.25C175.02 43.25 154.83 40.35 152.73 47.8C151.19 53.27 158.8 55.08 158.8 55.08C158.8 55.08 150.2 55.62 149.89 60.86C149.61 65.64 155.58 66.69 155.58 66.69C155.58 66.69 150.42 67.91 151.03 72.57C151.77 78.16 162.48 74.68 168.13 79.7C169.4 80.8 207.19 58.25 207.19 58.25Z" fill="#EB9481"/>
<path d="M183.76 57.3799C179.4 55.1399 168.18 52.6099 158.96 54.8999C158.75 54.8999 158.68 55.1299 158.88 55.1299C167.231 54.9046 175.578 55.6903 183.74 57.4699C183.79 57.4899 183.81 57.3999 183.76 57.3799Z" fill="#263238"/>
<path d="M180.5 67.46C176.5 65.92 164.85 63.82 155.59 66.46C155.38 66.52 155.32 66.71 155.52 66.7C163.859 66.0339 172.246 66.3224 180.52 67.56C180.533 67.5574 180.545 67.5495 180.552 67.5383C180.56 67.527 180.563 67.5133 180.56 67.5C180.557 67.4867 180.549 67.4751 180.538 67.4676C180.527 67.4601 180.513 67.4574 180.5 67.46V67.46Z" fill="#263238"/>
<path d="M182.14 151.11C181.84 150.11 181.55 149.11 181.23 148.2C180.57 146.2 180 144.2 179.42 142.2C178.24 138.2 177.11 134.14 176.12 130.06C174.144 121.928 172.645 113.687 171.63 105.38C171.35 103.08 171.11 100.78 170.86 98.4799C170.61 96.1799 170.53 93.7899 170.09 91.4799C170.09 91.3599 168.92 89.5999 168.46 88.7299C167.983 87.8249 167.565 86.8896 167.21 85.9299C166.462 83.9718 165.955 81.9302 165.7 79.8499C165.695 79.8369 165.686 79.8258 165.674 79.8179C165.663 79.8101 165.649 79.8059 165.635 79.8059C165.621 79.8059 165.607 79.8101 165.596 79.8179C165.584 79.8258 165.575 79.8369 165.57 79.8499C165.44 82.2172 165.738 84.5885 166.45 86.8499C167.066 88.7416 168.13 90.4568 169.55 91.8499C169.55 92.1499 169.62 95.8499 169.74 97.9199C169.86 99.9899 170.05 102.06 170.28 104.12C170.75 108.26 171.33 112.39 172.06 116.5C173.487 124.814 175.471 133.022 178 141.07C178 141.2 178.09 141.33 178.13 141.46C178.13 141.76 178.13 142.06 178.13 142.36C178.145 143.1 178.205 143.838 178.31 144.57C178.515 146.027 178.874 147.458 179.38 148.84C179.376 148.852 179.374 148.865 179.376 148.878C179.377 148.891 179.382 148.903 179.389 148.913C179.397 148.924 179.406 148.933 179.418 148.939C179.429 148.945 179.442 148.948 179.455 148.948C179.468 148.948 179.481 148.945 179.492 148.939C179.503 148.933 179.513 148.924 179.521 148.913C179.528 148.903 179.533 148.891 179.534 148.878C179.536 148.865 179.534 148.852 179.53 148.84C179.175 147.394 178.934 145.923 178.81 144.44L178.63 142.92C179.18 144.54 179.76 146.16 180.33 147.77C180.73 148.89 181.14 149.98 181.6 151.07C182.06 152.16 182.42 153.22 182.96 154.23C182.96 154.31 183.12 154.23 183.1 154.17C182.85 153.1 182.45 152.12 182.14 151.11Z" fill="#263238"/>
<path d="M57.4799 186.58V159.7L26.9299 186.58H57.4799Z" fill="#EBEBEB"/>
</svg>
