<svg width="30" height="30" viewBox="0 0 30 30" fill="none" xmlns="http://www.w3.org/2000/svg">
<path d="M1.59624 11.0725C3.25749 17.6725 12.3287 26.75 18.9275 28.4038C19.8183 28.6296 20.7335 28.7446 21.6525 28.7463C23.3988 28.7454 25.1182 28.3162 26.66 27.4963C27.2002 27.2141 27.6665 26.8089 28.0213 26.3133C28.376 25.8177 28.6093 25.2457 28.7022 24.6433C28.7952 24.041 28.7452 23.4253 28.5563 22.8458C28.3675 22.2663 28.045 21.7394 27.615 21.3075V21.3075L25.0075 18.7C24.4548 18.1475 23.7484 17.7743 22.9805 17.6292C22.2126 17.484 21.4187 17.5736 20.7025 17.8863C20.0192 18.1814 19.3959 18.5996 18.8637 19.12C18.6412 19.3413 18.2312 19.3763 17.6425 19.2163C16.099 18.589 14.6968 17.6589 13.5186 16.4809C12.3404 15.3029 11.4101 13.9009 10.7825 12.3575C10.625 11.7688 10.6575 11.3575 10.88 11.1363C11.401 10.6034 11.8197 9.97926 12.115 9.29501C12.4269 8.57904 12.5161 7.78575 12.371 7.01839C12.2258 6.25102 11.8531 5.54511 11.3012 4.99251L8.69374 2.38626C8.26679 1.95408 7.7432 1.62963 7.16615 1.43967C6.58911 1.24971 5.97517 1.1997 5.37499 1.29376C4.76801 1.3829 4.19086 1.61488 3.69104 1.97062C3.19122 2.32637 2.78301 2.7957 2.49999 3.34001C1.24087 5.71333 0.91835 8.47279 1.59624 11.0725V11.0725ZM4.71624 4.50001C4.81827 4.30469 4.96517 4.13635 5.14487 4.0088C5.32456 3.88125 5.53194 3.79813 5.74999 3.76626C5.81903 3.75526 5.88883 3.74983 5.95874 3.75001C6.1387 3.74995 6.31688 3.78561 6.48296 3.85491C6.64904 3.92422 6.79971 4.0258 6.92624 4.15376L9.53249 6.76001C9.72849 6.95371 9.86176 7.20183 9.91503 7.47219C9.9683 7.74256 9.93911 8.02269 9.83124 8.27626C9.66053 8.68321 9.41696 9.05556 9.11249 9.37501C8.66539 9.85135 8.35961 10.4427 8.22937 11.0829C8.09912 11.723 8.14954 12.3868 8.37499 13C9.27749 16.375 13.6312 20.7238 17 21.625C17.6155 21.85 18.2816 21.8991 18.9235 21.7666C19.5653 21.6341 20.1576 21.3254 20.6337 20.875C20.9513 20.5709 21.3215 20.3269 21.7262 20.155C21.98 20.0469 22.2604 20.0175 22.531 20.0708C22.8016 20.1241 23.0499 20.2575 23.2437 20.4538L25.85 23.06C26.0032 23.2116 26.1182 23.3974 26.1856 23.6021C26.2529 23.8068 26.2707 24.0246 26.2375 24.2375C26.205 24.4558 26.1211 24.6633 25.9926 24.8428C25.8642 25.0224 25.6949 25.1688 25.4987 25.27C23.6736 26.2509 21.5432 26.4994 19.5412 25.965C13.8612 24.5513 5.44999 16.14 4.01999 10.4625C3.48627 8.45872 3.73521 6.32692 4.71624 4.50001V4.50001Z" fill="#393E41"/>
</svg>
